<svg width="500" height="189" viewBox="0 0 500 189" fill="none" xmlns="http://www.w3.org/2000/svg">
<path d="M27.0095 187.609C12.6438 187.609 0.954102 175.886 0.954102 161.479V76.74C0.954102 76.4439 0.958863 76.1526 0.968386 75.8566V75.6751C0.958863 75.2787 0.954102 74.8776 0.954102 74.4813C0.954102 33.9385 33.8424 0.955078 74.2731 0.955078C114.704 0.955078 147.592 33.9385 147.592 74.486C147.592 74.8728 147.587 75.2549 147.578 75.6369V75.8613C147.583 76.1526 147.592 76.4487 147.592 76.7448V161.483C147.592 175.891 135.902 187.614 121.537 187.614H27.0095V187.609Z" fill="#00EB5B"/>
<path d="M74.2713 1.91014C93.6034 1.91014 111.774 9.45998 125.444 23.1653C139.115 36.8753 146.638 55.0981 146.638 74.486C146.638 74.8728 146.633 75.2549 146.624 75.6417V75.7945V75.8422V75.89C146.633 76.1717 146.643 76.4535 146.643 76.74V161.479C146.643 175.361 135.382 186.654 121.54 186.654H27.0078C13.1658 186.654 1.90464 175.361 1.90464 161.479V76.74C1.90464 76.4535 1.9094 76.1717 1.91892 75.89V75.8422V75.7945V75.6417C1.9094 75.2549 1.89988 74.8728 1.89988 74.486C1.89988 55.0981 9.42795 36.8753 23.0937 23.1653C36.769 9.45998 54.9393 1.91014 74.2713 1.91014ZM74.2713 0C33.2502 0 0 33.3463 0 74.486C0 74.9349 0.00952319 75.3838 0.0190464 75.8279C0.00952319 76.1335 0 76.4344 0 76.74V161.479C0 176.44 12.0897 188.565 27.0078 188.565H121.535C136.453 188.565 148.543 176.44 148.543 161.479V76.74C148.543 76.4344 148.538 76.1287 148.524 75.8279C148.533 75.379 148.543 74.9349 148.543 74.486C148.543 33.3463 115.288 0 74.2713 0Z" fill="#002B11"/>
<path d="M16.8721 166.965L29.4951 155.442C30.3664 154.683 31.0092 153.938 31.4283 153.217C31.8473 152.458 32.052 151.66 32.052 150.82C32.052 149.793 31.7282 149.015 31.0854 148.48C30.4426 147.912 29.5855 147.625 28.5284 147.625C27.4714 147.625 26.6524 147.969 25.9715 148.652C25.3287 149.335 24.9858 150.208 24.9477 151.273H16.9863C16.9863 149.373 17.4244 147.625 18.2958 146.025C19.2052 144.392 20.5337 143.079 22.2765 142.09C24.0573 141.102 26.2 140.605 28.7046 140.605C32.3044 140.605 35.1899 141.479 37.3469 143.227C39.5087 144.975 40.5896 147.353 40.5896 150.356C40.5896 152.486 40.0991 154.33 39.1087 155.886C38.1231 157.443 36.6803 159.005 34.7852 160.561L29.7236 164.726H40.8705V171.855H16.8721V166.951V166.965ZM60.0883 172.667C56.9028 172.667 54.0601 171.965 51.5603 170.556C49.0938 169.109 47.1796 167.171 45.8178 164.74C44.4512 162.304 43.7703 159.606 43.7703 156.641C43.7703 153.675 44.4512 150.977 45.8178 148.542C47.1844 146.106 49.0985 144.187 51.5603 142.783C54.0601 141.336 56.9075 140.615 60.0883 140.615C63.269 140.615 66.0974 141.336 68.5639 142.783C71.0638 144.192 73.0017 146.111 74.3635 148.542C75.7301 150.977 76.411 153.675 76.411 156.641C76.411 159.606 75.7301 162.304 74.3635 164.74C72.997 167.175 71.0638 169.114 68.5639 170.556C66.0974 171.965 63.2738 172.667 60.0883 172.667ZM60.0883 165.026C62.4405 165.026 64.3737 164.267 65.8879 162.744C67.4402 161.187 68.2211 159.153 68.2211 156.641C68.2211 154.129 67.4449 152.114 65.8879 150.595C64.369 149.038 62.4358 148.255 60.0883 148.255C57.7408 148.255 55.7838 149.034 54.2315 150.595C52.7126 152.114 51.9555 154.129 51.9555 156.641C51.9555 159.153 52.7126 161.182 54.2315 162.744C55.7838 164.262 57.7361 165.026 60.0883 165.026ZM78.9061 166.965L91.5291 155.442C92.4005 154.683 93.0433 153.938 93.4623 153.217C93.8813 152.458 94.0861 151.66 94.0861 150.82C94.0861 149.793 93.7623 149.015 93.1195 148.48C92.4766 147.912 91.6196 147.625 90.5625 147.625C89.5054 147.625 88.6864 147.969 88.0055 148.652C87.3627 149.335 87.0199 150.208 86.9818 151.273H79.0204C79.0204 149.373 79.4584 147.625 80.3298 146.025C81.2393 144.392 82.5678 143.079 84.3105 142.09C86.0914 141.102 88.2341 140.605 90.7387 140.605C94.3384 140.605 97.224 141.479 99.381 143.227C101.543 144.975 102.624 147.353 102.624 150.356C102.624 152.486 102.133 154.33 101.143 155.886C100.157 157.443 98.7143 159.005 96.8192 160.561L91.7576 164.726H102.905V171.855H78.9061V166.951V166.965ZM121.846 147.004C124.046 147.004 126.017 147.534 127.76 148.599C129.503 149.626 130.869 151.087 131.855 152.993C132.841 154.855 133.336 156.985 133.336 159.382C133.336 161.779 132.769 164.095 131.631 166.11C130.493 168.126 128.884 169.721 126.798 170.9C124.713 172.041 122.284 172.61 119.518 172.61C116.751 172.61 114.361 172.003 112.237 170.785C110.152 169.568 108.542 167.954 107.404 165.938C106.266 163.885 105.7 161.641 105.7 159.21C105.7 157.004 106.023 155.046 106.666 153.336C107.347 151.627 108.39 149.726 109.795 147.635L118.837 134.345H128.389L119.118 147.291C120.065 147.1 120.975 147.004 121.846 147.004ZM118.899 164.912C120.413 164.912 121.703 164.401 122.765 163.374C123.865 162.347 124.413 161.015 124.413 159.382C124.413 157.749 123.865 156.436 122.765 155.447C121.703 154.42 120.413 153.909 118.899 153.909C117.385 153.909 116.094 154.42 115.032 155.447C113.97 156.436 113.442 157.749 113.442 159.382C113.442 161.015 113.97 162.347 115.032 163.374C116.094 164.401 117.385 164.912 118.899 164.912Z" fill="#002B11"/>
<path d="M61.7791 81.5342C61.7791 85.3497 58.7031 88.4345 54.9176 88.4345C51.1322 88.4345 48.0562 85.3401 48.0562 81.5342C48.0562 77.7282 51.1322 74.6338 54.9176 74.6338C58.7031 74.6338 61.7791 77.7282 61.7791 81.5342ZM100.472 81.5342C100.472 85.3497 97.3958 88.4345 93.6104 88.4345C89.8249 88.4345 86.7489 85.3401 86.7489 81.5342C86.7489 77.7282 89.8249 74.6338 93.6104 74.6338C97.3958 74.6338 100.472 77.7282 100.472 81.5342ZM106.657 67.1556L112.99 60.2265H98.9529C91.9248 55.4034 83.4396 52.5859 74.264 52.5859C65.0884 52.5859 56.6366 55.4129 49.618 60.2265H35.5522L41.8852 67.1556C38.0045 70.7084 35.5713 75.8419 35.5713 81.5342C35.5713 92.2787 44.2374 100.994 54.9176 100.994C59.9983 100.994 64.617 99.0263 68.0692 95.8029L74.2735 102.593L80.4779 95.8125C83.93 99.0263 88.5488 100.994 93.6199 100.994C104.31 100.994 112.976 92.2787 112.976 81.5342C112.976 75.8324 110.543 70.7084 106.662 67.1556M54.9319 94.7141C47.6943 94.7141 41.8375 88.8118 41.8375 81.5437C41.8375 74.2756 47.7038 68.3733 54.9319 68.3733C62.16 68.3733 68.0263 74.2756 68.0263 81.5437C68.0263 88.8118 62.1696 94.7141 54.9319 94.7141ZM74.2783 81.1617C74.2783 72.4944 68.0168 65.0544 59.7459 61.8788C64.2123 60.0021 69.1262 58.9515 74.2783 58.9515C79.4303 58.9515 84.3443 59.9877 88.8107 61.8788C80.5398 65.0639 74.2783 72.4944 74.2783 81.1617ZM93.6246 94.7141C86.3965 94.7141 80.5303 88.8118 80.5303 81.5437C80.5303 74.2756 86.3965 68.3733 93.6246 68.3733C100.853 68.3733 106.719 74.2756 106.719 81.5437C106.719 88.8118 100.853 94.7141 93.6246 94.7141Z" fill="#002B11"/>
<path d="M92.3773 122.245C89.2347 122.465 86.3777 123.525 84.0684 125.153C86.5825 126.447 89.5537 127.101 92.6964 126.887C95.839 126.667 98.696 125.607 101.005 123.978C98.4912 122.684 95.52 122.03 92.3773 122.245Z" fill="#002B11"/>
<path d="M107.395 114.451C104.18 115.884 101.585 118.09 99.7808 120.688C102.914 121.084 106.285 120.63 109.499 119.198C112.713 117.765 115.308 115.559 117.113 112.961C113.98 112.565 110.609 113.019 107.395 114.451Z" fill="#002B11"/>
<path d="M121.6 99.0838C118.305 102.269 116.114 106.123 115.062 110.101C119.062 109.188 122.985 107.135 126.276 103.95C129.571 100.765 131.761 96.911 132.813 92.9331C128.814 93.8452 124.89 95.8986 121.6 99.0838Z" fill="#002B11"/>
<path d="M124.499 78.5976C122.152 83.4112 121.285 88.5161 121.714 93.3057C125.742 90.7032 129.223 86.8781 131.57 82.0645C133.918 77.251 134.784 72.1461 134.356 67.3564C130.328 69.959 126.847 73.7841 124.499 78.5976Z" fill="#002B11"/>
<path d="M120.17 55.9291C119.56 61.7264 120.565 67.2706 122.779 72.003C125.931 67.8389 128.069 62.629 128.683 56.8317C129.293 51.0344 128.288 45.4902 126.074 40.7578C122.922 44.9219 120.784 50.1318 120.17 55.9291Z" fill="#002B11"/>
<path d="M56.1666 122.254C59.3092 122.474 62.1662 123.534 64.4756 125.162C61.9614 126.456 58.9902 127.111 55.8476 126.896C52.7049 126.676 49.8479 125.616 47.5386 123.988C50.0527 122.693 53.0239 122.039 56.1666 122.254Z" fill="#002B11"/>
<path d="M41.1447 114.461C44.3588 115.894 46.9538 118.1 48.7585 120.698C45.6253 121.094 42.2541 120.64 39.0401 119.208C35.826 117.775 33.2309 115.569 31.4263 112.971C34.5594 112.575 37.9306 113.028 41.1447 114.461Z" fill="#002B11"/>
<path d="M26.944 99.0935C30.239 102.279 32.4294 106.132 33.4817 110.11C29.4819 109.198 25.5584 107.145 22.2681 103.96C18.9731 100.774 16.7828 96.9207 15.7305 92.9429C19.7302 93.855 23.6538 95.9084 26.944 99.0935Z" fill="#002B11"/>
<path d="M24.0475 78.6069C26.3949 83.4205 27.2615 88.5253 26.833 93.315C22.8047 90.7124 19.324 86.8874 16.9765 82.0738C14.629 77.2603 13.7624 72.1554 14.191 67.3657C18.2193 69.9683 21.7 73.7934 24.0475 78.6069Z" fill="#002B11"/>
<path d="M28.3737 55.9389C28.9832 61.7362 27.9785 67.2804 25.7644 72.0127C22.6122 67.8486 20.4742 62.6387 19.86 56.8414C19.2505 51.0441 20.2552 45.5 22.4693 40.7676C25.6215 44.9317 27.7595 50.1416 28.3737 55.9389Z" fill="#002B11"/>
<path d="M74.2727 134.068C77.1707 134.068 79.5199 131.712 79.5199 128.805C79.5199 125.899 77.1707 123.543 74.2727 123.543C71.3747 123.543 69.0254 125.899 69.0254 128.805C69.0254 131.712 71.3747 134.068 74.2727 134.068Z" fill="#002B11"/>
<path d="M186.789 28.6297V25.6168H182.15V43.5564H186.789V32.7999C186.789 30.8511 188.044 29.8951 189.998 29.8951H192.536V25.6168H190.367C188.671 25.6168 187.195 26.499 186.789 28.6312V28.6297ZM196.883 18.5186C195.296 18.5186 194.079 19.7686 194.079 21.3495C194.079 22.0905 194.375 22.8012 194.9 23.3252C195.426 23.8492 196.139 24.1436 196.883 24.1436C197.626 24.1436 198.339 23.8492 198.865 23.3252C199.391 22.8012 199.686 22.0905 199.686 21.3495C199.686 19.7701 198.468 18.5186 196.883 18.5186ZM194.569 43.5549H199.194V25.6168H194.567L194.569 43.5549ZM221.242 34.5836C221.242 39.7048 217.076 43.8565 211.941 43.8565C209.969 43.866 208.049 43.2261 206.479 42.0363V48.8216H201.852V25.6168H206.479V27.134C208.049 25.9442 209.969 25.3043 211.941 25.3138C217.076 25.3138 221.242 29.4655 221.242 34.5866V34.5836ZM216.585 34.5836C216.585 33.5873 216.288 32.6134 215.733 31.785C215.178 30.9566 214.388 30.311 213.465 29.9297C212.541 29.5484 211.525 29.4487 210.545 29.6431C209.564 29.8374 208.664 30.3172 207.957 31.0217C207.25 31.7262 206.769 32.6237 206.574 33.6009C206.379 34.5781 206.479 35.5909 206.861 36.5114C207.244 37.4318 207.892 38.2186 208.723 38.7721C209.554 39.3256 210.531 39.621 211.531 39.621C212.871 39.621 214.156 39.0907 215.103 38.1467C216.051 37.2026 216.584 35.9221 216.585 34.5866V34.5836ZM301.682 33.0097L298.982 32.2715C297.206 31.811 296.514 31.2673 296.514 30.3323C296.514 29.4197 297.486 28.7827 298.878 28.7827C300.204 28.7827 301.242 29.6484 301.242 30.7539V30.8561H305.506V30.7539C305.506 27.4978 302.842 25.3108 298.877 25.3108C294.948 25.3108 292.097 27.4963 292.097 30.5077C292.097 32.8502 293.655 34.616 296.373 35.3492L298.959 36.0519C300.923 36.5937 301.653 37.1958 301.653 38.2728C301.653 39.4097 300.598 40.1738 299.027 40.1738C297.388 40.1738 296.287 39.1416 296.287 37.6055V37.5058H291.76V37.6055C291.76 41.2862 294.733 43.8565 298.989 43.8565C303.09 43.8565 306.068 41.3455 306.068 37.8866C306.07 36.197 305.309 33.9771 301.682 33.0127V33.0097ZM237.66 25.6168H242.287V43.5564H237.66V42.0393C236.09 43.2293 234.17 43.8692 232.198 43.8595C227.059 43.8595 222.894 39.7077 222.894 34.5866C222.894 29.4655 227.059 25.3163 232.198 25.3163C234.17 25.3068 236.09 25.9467 237.659 27.1365L237.66 25.6168ZM237.66 34.5881C237.66 33.5919 237.364 32.618 236.808 31.7896C236.253 30.9613 235.464 30.3157 234.54 29.9346C233.616 29.5534 232.6 29.4537 231.62 29.6481C230.64 29.8425 229.739 30.3223 229.032 31.0268C228.326 31.7314 227.844 32.6289 227.649 33.6061C227.454 34.5832 227.554 35.596 227.937 36.5165C228.319 37.4369 228.967 38.2236 229.798 38.7771C230.63 39.3306 231.607 39.626 232.606 39.626C233.27 39.6259 233.928 39.4955 234.541 39.2422C235.154 38.9889 235.711 38.6176 236.181 38.1496C236.65 37.6815 237.022 37.126 237.276 36.5145C237.53 35.9031 237.661 35.2478 237.66 34.5861V34.5881ZM259.001 19.2313H263.628V43.5564H259.001V42.0393C257.431 43.2291 255.511 43.8689 253.539 43.8595C248.401 43.8595 244.236 39.7077 244.236 34.5866C244.236 29.4655 248.401 25.3163 253.539 25.3163C255.511 25.3061 257.431 25.9451 259.001 27.134V19.2313ZM259.001 34.5866C259.001 33.5903 258.704 32.6164 258.149 31.788C257.594 30.9596 256.804 30.3139 255.881 29.9327C254.957 29.5514 253.941 29.4517 252.961 29.6461C251.98 29.8405 251.08 30.3203 250.373 31.0248C249.666 31.7294 249.185 32.627 248.99 33.6042C248.795 34.5814 248.895 35.5943 249.278 36.5147C249.66 37.4352 250.308 38.2219 251.139 38.7753C251.97 39.3288 252.948 39.6241 253.947 39.624C255.288 39.6239 256.573 39.0931 257.521 38.1484C258.468 37.2037 259.001 35.9225 259.001 34.5866ZM285.118 43.5579H289.745V25.6168H285.118V43.5579ZM287.429 18.5186C285.843 18.5186 284.626 19.7686 284.626 21.3495C284.626 22.0905 284.921 22.8012 285.447 23.3252C285.973 23.8492 286.686 24.1436 287.429 24.1436C288.173 24.1436 288.886 23.8492 289.411 23.3252C289.937 22.8012 290.233 22.0905 290.233 21.3495C290.233 19.7701 289.015 18.5186 287.429 18.5186ZM326.075 34.5851C326.075 39.7063 321.91 43.858 316.774 43.858C311.638 43.858 307.47 39.7063 307.47 34.5851C307.47 29.464 311.636 25.3148 316.774 25.3148C321.912 25.3148 326.075 29.4655 326.075 34.5866V34.5851ZM321.824 34.5851C321.824 33.5888 321.528 32.6149 320.973 31.7865C320.417 30.9581 319.628 30.3125 318.704 29.9312C317.781 29.5499 316.765 29.4502 315.784 29.6446C314.804 29.8389 313.903 30.3187 313.196 31.0232C312.49 31.7277 312.008 32.6252 311.813 33.6024C311.618 34.5796 311.718 35.5924 312.101 36.5129C312.483 37.4333 313.131 38.2201 313.962 38.7736C314.793 39.3271 315.771 39.6225 316.77 39.6225C318.11 39.6228 319.396 39.0924 320.344 38.148C321.292 37.2036 321.825 35.9225 321.825 34.5866L321.824 34.5851ZM184.419 19.2313H166.667V23.3466H173.238V43.5564H177.849V23.3466H184.42L184.419 19.2313ZM274.203 38.6436L270.086 25.6168H265.225L271.4 43.5564H276.969L283.18 25.6168H278.319L274.203 38.6436ZM332.857 28.6312V25.6168H328.218V43.5564H332.857V32.7999C332.857 30.8511 334.111 29.8951 336.066 29.8951H338.604V25.6168H336.435C334.738 25.6168 333.263 26.499 332.857 28.6312Z" fill="#161107"/>
<path d="M396.704 150.408V152.88H369.656C370.383 157.097 373.218 159.715 377.508 159.715C381.289 159.715 383.616 157.97 384.561 155.425H396.34C394.522 164.005 387.906 169.603 377.508 169.603C365.366 169.603 357.876 161.096 357.876 150.044C357.876 138.992 366.165 130.485 377.799 130.485C389.942 130.485 396.704 137.975 396.704 150.408ZM377.581 139.647C374.091 139.647 370.819 141.465 369.801 145.318H384.997C384.416 141.683 381.507 139.647 377.581 139.647Z" fill="#161107"/>
<path d="M336.617 169.603C324.765 169.603 316.622 161.096 316.622 150.044C316.622 138.992 324.765 130.485 336.762 130.485C348.323 130.485 354.867 137.247 355.812 146.045H344.397C343.524 143.5 340.689 141.246 336.835 141.246C331.673 141.246 328.255 144.955 328.255 150.044C328.255 155.134 331.673 158.842 336.835 158.842C340.689 158.842 343.306 156.516 344.324 154.043H355.812C354.722 162.769 347.742 169.603 336.617 169.603Z" fill="#161107"/>
<path d="M307.764 128.522C303.983 128.522 300.856 125.395 300.856 121.615C300.856 117.834 303.983 114.707 307.764 114.707C311.545 114.707 314.671 117.834 314.671 121.615C314.671 125.395 311.545 128.522 307.764 128.522ZM301.947 168.585V131.503H313.581V168.585H301.947Z" fill="#161107"/>
<path d="M278.473 169.603C266.767 169.603 258.042 161.096 258.042 150.044C258.042 138.992 266.767 130.485 278.473 130.485C290.179 130.485 298.905 138.992 298.905 150.044C298.905 161.096 290.179 169.603 278.473 169.603ZM278.473 158.842C283.272 158.842 287.271 155.207 287.271 150.044C287.271 144.882 283.272 141.246 278.473 141.246C273.674 141.246 269.675 144.882 269.675 150.044C269.675 155.207 273.674 158.842 278.473 158.842Z" fill="#161107"/>
<path d="M220.929 168.586V117.688H232.563V136.375C234.09 133.176 238.452 130.485 243.688 130.485C250.304 130.485 254.958 135.212 254.958 143.864V168.586H243.324V147.136C243.324 143.573 241.215 141.247 237.943 141.247C234.671 141.247 232.563 143.573 232.563 147.136V168.586H220.929Z" fill="#161107"/>
<path d="M192.697 169.603C179.246 169.603 166.667 159.788 166.667 143.137C166.667 126.486 179.246 116.67 192.697 116.67C205.858 116.67 215.892 123.505 217.71 136.375H205.276C203.895 130.849 199.387 127.65 192.843 127.65C184.626 127.65 178.591 134.048 178.591 143.137C178.591 152.226 184.626 158.624 192.843 158.624C199.387 158.624 203.895 155.28 205.276 149.754H217.71C215.674 162.841 205.64 169.603 192.697 169.603Z" fill="#161107"/>
<path d="M405.991 117.615H408.82V127.519H406.557V123.048C406.557 122.482 406.571 122.142 406.613 121.477L404.774 127.519H403.105L401.265 121.477C401.308 122.142 401.322 122.482 401.322 123.048V127.519H399.058V117.615H401.888L403.571 122.425C403.713 122.835 403.84 123.189 403.939 123.642C404.038 123.189 404.166 122.835 404.307 122.425L405.991 117.615Z" fill="#161107"/>
<path d="M398.071 117.615V119.709H395.397V127.519H393.077V119.709H390.403V117.615H398.071Z" fill="#161107"/>
<path d="M486.843 82.8046V76.811H487.793C491.302 76.811 493.275 75.1299 493.421 71.2559C492.91 71.4752 492.544 71.5483 492.033 71.5483C488.086 71.5483 485.016 68.4784 485.016 64.7507C485.016 60.7305 488.086 57.6606 492.033 57.6606C496.637 57.6606 500 61.8269 500 69.0632C500 76.9572 496.126 82.8046 488.89 82.8046H486.843Z" fill="#161107"/>
<path d="M468.893 109.427C460.414 109.427 454.347 104.164 454.347 96.3434H465.165C465.165 98.6093 466.481 100.437 469.331 100.437C471.524 100.437 472.986 99.4133 472.986 97.8053C472.986 96.2703 471.67 95.3201 469.331 94.5892L463.484 92.6888C458.075 90.9345 455.005 87.2799 455.005 81.5786C455.005 75.0003 460.999 70.103 468.966 70.103C477.883 70.103 482.927 75.6581 482.927 82.8212H473.205C473.205 80.8477 471.743 79.3858 469.331 79.3858C466.992 79.3858 465.53 80.4091 465.53 81.7248C465.53 83.1867 466.919 84.0638 469.697 84.8678L474.959 86.4028C479.784 87.7915 483.804 90.7883 483.804 96.6358C483.804 103.726 478.833 109.427 468.893 109.427Z" fill="#161107"/>
<path d="M449.554 71.1265H452.989V82.9675H447.726C443.779 82.9675 441.879 84.8679 441.879 88.815V108.404H430.184V71.1265H441.148V78.1434C441.952 73.3923 445.826 71.1265 449.554 71.1265Z" fill="#161107"/>
<path d="M426.364 90.1305V92.6157H399.173C399.904 96.8551 402.755 99.4864 407.067 99.4864C410.868 99.4864 413.207 97.7322 414.157 95.1739H425.998C424.171 103.799 417.519 109.427 407.067 109.427C394.861 109.427 387.332 100.875 387.332 89.765C387.332 78.6549 395.665 70.103 407.359 70.103C419.566 70.103 426.364 77.6316 426.364 90.1305ZM407.14 79.3127C403.632 79.3127 400.343 81.1401 399.319 85.014H414.596C414.011 81.3593 411.087 79.3127 407.14 79.3127Z" fill="#161107"/>
<path d="M355.72 108.404V57.2388H367.415V108.404H355.72Z" fill="#161107"/>
<path d="M372.12 108.404V57.2388H383.815V108.404H372.12Z" fill="#161107"/>
<path d="M351.9 90.131V92.6162H324.71C325.441 96.8555 328.291 99.4869 332.604 99.4869C336.405 99.4869 338.744 97.7327 339.694 95.1744H351.535C349.708 103.799 343.056 109.428 332.604 109.428C320.397 109.428 312.869 100.876 312.869 89.7655C312.869 78.6554 321.201 70.1035 332.896 70.1035C345.103 70.1035 351.9 77.6321 351.9 90.131ZM332.677 79.3132C329.168 79.3132 325.879 81.1406 324.856 85.0145H340.132C339.548 81.3598 336.624 79.3132 332.677 79.3132Z" fill="#161107"/>
<path d="M288.313 108.404L275.595 71.1265H288.167L293.21 87.4993C293.868 89.6921 294.599 91.8849 295.184 94.4431C295.695 91.8849 296.426 89.6921 297.084 87.4993L302.201 71.1265H314.773L302.054 108.404H288.313Z" fill="#161107"/>
<path d="M250.483 109.428C240.981 109.428 232.209 102.118 232.209 89.7655C232.209 77.4128 240.981 70.1035 250.483 70.1035C255.745 70.1035 259.985 72.3694 261.885 75.1469V71.1268H273.142V108.404H261.885V104.384C259.985 107.162 255.745 109.428 250.483 109.428ZM252.895 98.756C258.011 98.756 261.885 95.0282 261.885 89.7655C261.885 84.5028 258.011 80.7751 252.895 80.7751C247.778 80.7751 243.904 84.5028 243.904 89.7655C243.904 95.0282 247.778 98.756 252.895 98.756Z" fill="#161107"/>
<path d="M228.047 71.1265H231.482V82.9675H226.22C222.273 82.9675 220.372 84.8679 220.372 88.815V108.404H208.677V71.1265H219.641V78.1434C220.445 73.3923 224.319 71.1265 228.047 71.1265Z" fill="#161107"/>
<path d="M206.283 57.2388V68.0565H192.469V108.404H180.482V68.0565H166.667V57.2388H206.283Z" fill="#161107"/>
</svg>
